<svg width="128" height="128" viewBox="0 0 128 128" fill="none" xmlns="http://www.w3.org/2000/svg">
    <defs>
        <linearGradient id="mainGradient" x1="0" y1="0" x2="128" y2="128" gradientUnits="userSpaceOnUse">
            <stop offset="0%" stop-color="#3B82F6"/> <!-- Electric Blue -->
            <stop offset="100%" stop-color="#8B5CF6"/> <!-- Purple -->
        </linearGradient>
    </defs>
    
    <!-- Background (Optional, consistent with PNG) -->
    <rect width="128" height="128" rx="24" fill="#111111"/>
    
    <!-- Left Brace -->
    <path d="M42 32 C 42 24, 34 24, 30 24 L 28 24 C 24 24, 20 28, 20 32 L 20 54 C 20 60, 14 64, 14 64 C 14 64, 20 68, 20 74 L 20 96 C 20 100, 24 104, 28 104 L 30 104 C 34 104, 42 104, 42 96" 
          stroke="url(#mainGradient)" stroke-width="8" stroke-linecap="round" fill="none"/>
          
    <!-- Right Brace -->
    <path d="M86 32 C 86 24, 94 24, 98 24 L 100 24 C 104 24, 108 28, 108 32 L 108 54 C 108 60, 114 64, 114 64 C 114 64, 108 68, 108 74 L 108 96 C 108 100, 104 104, 100 104 L 98 104 C 94 104, 86 104, 86 96" 
          stroke="url(#mainGradient)" stroke-width="8" stroke-linecap="round" fill="none"/>
          
    <!-- Compressed Lines (representing code) -->
    <!-- Top lines (uncompressed) -->
    <rect x="52" y="34" width="24" height="4" rx="2" fill="url(#mainGradient)" opacity="0.4"/>
    <rect x="52" y="44" width="24" height="4" rx="2" fill="url(#mainGradient)" opacity="0.6"/>
    <rect x="52" y="54" width="24" height="4" rx="2" fill="url(#mainGradient)" opacity="0.8"/>
    
    <!-- Center distinct compressed block -->
    <rect x="46" y="62" width="36" height="8" rx="4" fill="url(#mainGradient)"/>
    
    <!-- Bottom lines (uncompressed) -->
    <rect x="52" y="74" width="24" height="4" rx="2" fill="url(#mainGradient)" opacity="0.8"/>
    <rect x="52" y="84" width="24" height="4" rx="2" fill="url(#mainGradient)" opacity="0.6"/>
    <rect x="52" y="94" width="24" height="4" rx="2" fill="url(#mainGradient)" opacity="0.4"/>
</svg>
