<svg xmlns="http://www.w3.org/2000/svg" viewBox="0 0 128 128" fill="none">
    <!-- Transparent Background -->
    
    <!-- Left Brace { -->
    <path d="M40 32C40 24 32 24 28 24H26C22 24 18 28 18 32V54C18 60 12 64 12 64C12 64 18 68 18 74V96C18 100 22 104 26 104H28C32 104 40 104 40 96" 
          stroke="#E0E0E0" stroke-width="8" stroke-linecap="round"/>
          
    <!-- Right Brace } -->
    <path d="M88 32C88 24 96 24 100 24H102C106 24 110 28 110 32V54C110 60 116 64 116 64C116 64 110 68 110 74V96C110 100 106 104 102 104H100C96 104 88 104 88 96" 
          stroke="#E0E0E0" stroke-width="8" stroke-linecap="round"/>
          
    <!-- Code Lines Block (Compressed) -->
    <!-- Top Lines -->
    <rect x="50" y="36" width="28" height="6" rx="3" fill="#E0E0E0" fill-opacity="0.6"/>
    <rect x="50" y="48" width="28" height="6" rx="3" fill="#E0E0E0" fill-opacity="0.8"/>
    
    <!-- Central Compressed Block (Highlight) -->
    <rect x="44" y="60" width="40" height="8" rx="4" fill="#FFFFFF"/>
    
    <!-- Bottom Lines -->
    <rect x="50" y="74" width="28" height="6" rx="3" fill="#E0E0E0" fill-opacity="0.8"/>
    <rect x="50" y="86" width="28" height="6" rx="3" fill="#E0E0E0" fill-opacity="0.6"/>
</svg>
